<svg width="512" height="512" viewBox="0 0 512 512" fill="none" xmlns="http://www.w3.org/2000/svg">
<rect width="512" height="512" fill="url(#paint0_linear_10161_43)"/>
<path d="M253.618 412C236.33 412 221.335 409.404 208.634 404.212C195.932 399.02 186.23 389.848 179.526 376.695C173.175 363.541 170 345.023 170 321.14V303.487C178.468 303.487 187.112 303.487 195.932 303.487C204.753 303.487 213.397 303.487 221.865 303.487V325.294C221.865 339.831 223.276 351.081 226.098 359.042C228.921 367.003 232.802 372.541 237.742 375.656C242.681 378.425 248.326 379.81 254.677 379.81C264.909 379.81 273.024 376.521 279.022 369.945C285.372 363.022 288.548 350.215 288.548 331.524C288.548 317.679 286.431 307.295 282.197 300.372C277.963 293.45 271.259 287.912 262.086 283.758C253.266 279.258 241.799 274.239 227.686 268.701C216.043 263.509 205.988 257.452 197.52 250.529C189.052 243.607 182.702 234.78 178.468 224.05C174.234 213.32 172.117 199.994 172.117 184.072C172.117 164.688 174.587 148.939 179.526 136.825C184.818 124.364 193.639 115.364 205.988 109.826C218.336 103.942 234.919 101 255.735 101C282.55 101 303.013 107.057 317.126 119.172C331.239 130.94 338.295 148.247 338.295 171.092V206.917C330.181 206.917 321.889 206.917 313.422 206.917C305.307 206.917 297.015 206.917 288.548 206.917V185.629C288.548 169.707 285.902 158.285 280.609 151.362C275.67 144.093 267.555 140.459 256.265 140.459C244.622 140.459 236.154 143.92 230.862 150.843C225.922 157.42 223.452 167.977 223.452 182.514C223.452 194.975 225.922 204.667 230.862 211.589C235.801 218.166 242.152 223.358 249.914 227.165C258.029 230.973 266.32 234.434 274.788 237.549C290.665 243.434 303.543 249.491 313.422 255.721C323.301 261.952 330.533 270.259 335.12 280.643C339.707 291.027 342 305.737 342 324.775C342 346.581 338.295 363.888 330.886 376.695C323.83 389.155 313.598 398.155 300.191 403.693C287.136 409.231 271.612 412 253.618 412Z" fill="white"/>
<defs>
<linearGradient id="paint0_linear_10161_43" x1="101.243" y1="0.000153944" x2="541.62" y2="54.4994" gradientUnits="userSpaceOnUse">
<stop stop-color="#ED0233"/>
<stop offset="1" stop-color="#003EB7"/>
</linearGradient>
</defs>
</svg>
